<!--?xml version="1.0" standalone="no"?-->
              <svg id="sw-js-blob-svg" viewBox="0 0 100 100" xmlns="http://www.w3.org/2000/svg" version="1.1">
                    <defs> 
                        <linearGradient id="sw-gradient" x1="0" x2="1" y1="1" y2="0">
                            <stop id="stop1" stop-color="rgba(248, 117, 55, 1)" offset="0%"></stop>
                            <stop id="stop2" stop-color="rgba(251, 168, 31, 1)" offset="100%"></stop>
                        </linearGradient>
                    </defs>
                <path fill="url(#sw-gradient)" d="M19.2,-21.3C25.7,-17.4,32.3,-12.2,36.1,-4.4C39.8,3.4,40.6,13.6,36.2,20.5C31.7,27.3,22.1,30.7,13.3,31.7C4.6,32.7,-3.2,31.4,-11.6,29.4C-20,27.4,-29.1,24.7,-35.1,18.3C-41.2,11.9,-44.3,1.8,-43.1,-8C-41.8,-17.7,-36.2,-27.1,-28.3,-30.7C-20.4,-34.3,-10.2,-32.1,-1.9,-29.8C6.4,-27.5,12.7,-25.1,19.2,-21.3Z" width="100%" height="100%" transform="translate(50 50)" stroke-width="0" style="transition: all 0.3s ease 0s;"></path>
              </svg>