<svg width="219" height="185" viewBox="0 0 219 185" fill="none" xmlns="http://www.w3.org/2000/svg">
<path d="M7.626 36.8H28.086V89.81H50.034V36.8H70.494V167H50.034V108.41H28.086V167H7.626V36.8Z" fill="black"/>
<path d="M180.402 55.2473C177.747 54.2809 174.984 56.2335 174.218 59.5863L154.23 147.943C153.465 151.295 155.011 154.786 157.666 155.753C160.32 156.719 163.084 154.767 163.85 151.414L183.838 63.0574C184.603 59.7046 183.057 56.2137 180.402 55.2473ZM192.988 78.9339C191.036 81.3992 191.036 85.4029 192.988 87.8682L206.933 105.5L192.973 123.132C191.021 125.597 191.021 129.601 192.973 132.066C194.925 134.531 198.095 134.531 200.047 132.066L217.536 109.977C219.488 107.512 219.488 103.508 217.536 101.043L200.047 78.9537C198.095 76.4884 194.925 76.4884 192.973 78.9537L192.988 78.9339ZM145.095 78.9339C143.143 76.4686 139.973 76.4686 138.021 78.9339L120.532 101.023C118.58 103.488 118.58 107.492 120.532 109.957L138.021 132.046C139.973 134.512 143.143 134.512 145.095 132.046C147.047 129.581 147.047 125.577 145.095 123.112L131.135 105.5L145.095 87.8682C147.047 85.4029 147.047 81.3992 145.095 78.9339Z" fill="black"/>
</svg>
